<?xml version="1.0" standalone="no"?>
<!DOCTYPE svg PUBLIC "-//W3C//DTD SVG 20010904//EN"
 "http://www.w3.org/TR/2001/REC-SVG-20010904/DTD/svg10.dtd">
<svg version="1.0" xmlns="http://www.w3.org/2000/svg"
 width="250.000000pt" height="250.000000pt" viewBox="0 0 250.000000 250.000000"
 preserveAspectRatio="xMidYMid meet">
<metadata>
Created by potrace 1.14, written by Peter Selinger 2001-2017
</metadata>
<g transform="translate(0.000000,250.000000) scale(0.100000,-0.100000)"
fill="#000000" stroke="none">
<path d="M810 1935 c0 -9 -10 -15 -26 -15 -35 0 -148 -46 -211 -87 -120 -77
-188 -174 -224 -322 -22 -89 -34 -242 -25 -305 6 -40 10 -46 32 -46 34 0 54
-48 28 -67 -10 -7 -26 -13 -36 -13 -22 0 -24 -18 -3 -26 8 -4 15 -11 15 -16 0
-24 67 -160 111 -226 27 -40 49 -77 49 -82 0 -5 -13 -24 -29 -42 -40 -47 -52
-74 -54 -121 -3 -79 34 -127 98 -127 17 0 45 20 88 63 98 96 138 130 253 217
59 44 198 145 216 155 9 5 30 20 47 33 l31 24 6 -31 c9 -44 21 -47 54 -16 l28
27 45 -35 c33 -25 52 -33 71 -30 22 5 28 0 41 -30 8 -20 30 -45 50 -57 35 -21
46 -40 23 -40 -6 0 -4 -7 5 -18 21 -23 21 -32 3 -32 -8 0 -19 -13 -24 -29 -9
-24 -15 -29 -34 -24 -13 3 -27 11 -33 17 -7 8 -50 12 -130 11 -66 0 -135 3
-152 7 -32 7 -33 7 -33 -27 0 -44 -35 -69 -57 -39 -20 28 -16 50 15 65 l27 13
-32 4 c-38 4 -40 8 -16 34 15 17 15 18 -8 18 -21 0 -46 -15 -180 -104 -39 -27
-99 -84 -99 -95 0 -4 16 -13 35 -20 29 -10 38 -10 55 2 18 12 28 12 78 -5 70
-24 277 -58 352 -58 72 0 280 34 352 58 55 18 58 18 74 1 15 -17 18 -17 63 1
l47 18 35 -37 c45 -50 68 -61 126 -61 43 0 51 3 66 29 42 71 9 148 -99 231
-33 25 -59 51 -57 57 2 6 -6 9 -20 6 -17 -3 -28 2 -41 21 -9 15 -22 25 -29 24
-26 -6 -317 203 -324 233 -4 15 -9 17 -25 8 -28 -15 -72 25 -57 52 7 14 2 30
-21 68 -17 28 -34 66 -37 86 l-6 37 28 -26 c15 -14 31 -26 35 -26 10 0 20 143
20 284 0 118 0 119 -20 101 -18 -17 -21 -17 -45 -1 -30 19 -29 18 -9 58 13 25
14 35 4 53 -23 43 -115 124 -175 154 l-60 29 -13 -36 c-15 -45 -15 -44 -46
-36 -24 6 -27 11 -24 43 3 34 4 36 38 34 25 -2 31 0 20 6 -18 11 -188 31 -206
24 -6 -2 -15 0 -19 6 -9 16 -25 13 -25 -4z m-156 -131 c11 -30 6 -44 -19 -50
-31 -8 -55 10 -55 42 0 21 5 24 34 24 22 0 36 -6 40 -16z m309 -45 c21 -6 59
-22 83 -37 41 -25 45 -30 39 -57 -3 -16 -9 -58 -12 -92 -5 -57 -4 -63 20 -85
21 -18 24 -27 17 -45 -5 -13 -17 -23 -27 -23 -17 0 -18 -7 -12 -72 4 -40 12
-97 19 -126 11 -50 11 -55 -10 -77 -12 -13 -20 -32 -18 -46 2 -18 -8 -29 -57
-59 -144 -88 -304 -172 -315 -165 -34 21 -120 200 -120 248 0 8 -9 22 -19 31
-16 15 -18 23 -10 44 6 15 12 73 15 129 5 124 17 182 51 248 39 75 70 111 123
144 80 49 155 62 233 40z m-508 -205 c0 -27 -3 -29 -35 -29 -31 0 -35 3 -38
29 -4 34 11 46 47 37 21 -6 26 -14 26 -37z m876 -84 c27 -15 24 -44 -6 -60
-23 -12 -28 -12 -48 9 l-22 22 24 20 c27 22 27 22 52 9z m-837 -46 c21 -8 20
-27 -3 -48 -15 -14 -24 -15 -40 -6 -20 10 -28 40 -14 53 8 9 36 9 57 1z m686
-124 c19 -10 17 -42 -4 -59 -19 -15 -56 6 -56 32 0 38 22 48 60 27z m-130
-296 c13 -34 14 -33 -17 -45 -22 -8 -30 -7 -40 7 -18 25 -16 52 5 57 35 9 43
6 52 -19z m-480 -113 c0 -21 -6 -30 -22 -35 -34 -9 -35 -8 -42 19 -9 35 -1 45
35 45 25 0 29 -4 29 -29z m315 -73 c28 -13 33 -39 10 -58 -12 -10 -21 -10 -40
-2 -28 13 -31 23 -13 52 15 24 11 23 43 8z m789 -8 c31 -11 32 -17 7 -49 -16
-21 -21 -22 -42 -11 -13 7 -25 14 -27 15 -5 5 21 55 29 55 4 0 19 -4 33 -10z
m-1076 -179 c20 -13 11 -56 -13 -59 -32 -4 -49 13 -41 42 6 26 29 33 54 17z"/>
<path d="M1537 1934 c-49 -7 -91 -15 -95 -19 -4 -4 6 -5 22 -1 33 8 46 -4 46
-45 0 -21 -6 -28 -26 -33 -15 -4 -28 -6 -29 -4 -1 2 -10 18 -19 36 l-17 32
-39 -20 c-22 -11 -40 -23 -40 -26 0 -3 19 -41 41 -84 l42 -80 33 21 c77 47 99
54 174 54 92 0 151 -26 225 -101 28 -28 59 -55 70 -61 13 -8 19 -24 20 -59 2
-27 7 -92 14 -144 22 -192 -8 -349 -89 -472 l-38 -56 22 -19 c11 -11 30 -26
42 -34 12 -8 40 -28 64 -46 l42 -32 32 47 c18 26 45 69 59 95 15 27 40 59 55
72 25 22 25 24 5 18 -17 -4 -25 1 -34 21 -10 22 -9 29 6 46 10 11 24 20 30 20
21 0 27 40 31 195 2 113 -1 167 -13 215 -8 36 -15 75 -14 87 0 16 -7 23 -29
28 -27 6 -30 10 -30 48 -1 51 -41 111 -122 180 -53 45 -56 46 -89 35 -19 -6
-34 -7 -36 -2 -2 5 -12 23 -22 40 -16 26 -28 33 -77 42 -91 18 -123 18 -217 6z
m235 -86 c3 -7 2 -24 -2 -38 -5 -19 -12 -24 -31 -22 -32 4 -38 12 -32 45 4 22
11 27 33 27 15 0 30 -6 32 -12z m306 -493 c4 -32 -13 -49 -42 -41 -21 5 -26
12 -26 37 0 28 2 30 33 27 23 -2 33 -8 35 -23z m-110 -429 c13 -28 0 -46 -34
-46 -16 0 -23 8 -27 27 -9 46 41 61 61 19z"/>
</g>
</svg>
